<?xml version="1.0" standalone="no"?>
<!DOCTYPE svg PUBLIC "-//W3C//DTD SVG 20010904//EN"
 "http://www.w3.org/TR/2001/REC-SVG-20010904/DTD/svg10.dtd">
<svg version="1.0" xmlns="http://www.w3.org/2000/svg"
 width="1800.000000pt" height="1800.000000pt" viewBox="0 0 1800.000000 1800.000000"
 preserveAspectRatio="xMidYMid meet">
<metadata>
Created by potrace 1.14, written by Peter Selinger 2001-2017
</metadata>
<g transform="translate(0.000000,1800.000000) scale(0.100000,-0.100000)"
fill="#000000" stroke="none">
<path d="M11860 16426 l-525 -303 -5 -214 c-3 -118 -7 -199 -8 -181 -2 37 -4
38 -37 16 -25 -16 -25 -16 -25 16 0 25 -4 31 -15 26 -8 -3 -22 -9 -30 -12 -11
-5 -15 1 -15 26 0 22 -4 30 -12 27 -7 -3 -21 -8 -30 -12 -12 -5 -17 0 -20 17
-4 23 -9 25 -40 13 -15 -6 -18 -2 -18 24 0 35 -10 38 -45 15 -25 -16 -25 -16
-25 15 0 17 -3 31 -7 30 -5 0 -242 -136 -528 -302 l-520 -302 -3 -267 -2 -267
-85 49 c-46 28 -87 50 -90 50 -4 0 -30 16 -59 35 -29 19 -58 35 -63 35 -6 0
-16 7 -23 15 -7 9 -15 14 -17 11 -3 -2 -19 1 -36 8 -55 21 -141 9 -233 -35
-34 -16 -64 -29 -67 -29 -11 0 -1480 -851 -1508 -873 -15 -12 -44 -33 -65 -47
-67 -45 -180 -164 -232 -242 -51 -79 -102 -190 -123 -270 -10 -35 -19 -48 -43
-58 -17 -7 -35 -15 -39 -18 -5 -2 -5 13 -1 34 l7 38 -37 -22 -37 -22 7 35 c7
38 1 41 -36 20 -36 -20 -41 -18 -30 11 16 40 12 46 -20 29 -40 -21 -43 -19
-35 15 7 34 -7 39 -39 15 -30 -22 -36 -18 -24 16 6 16 8 33 5 36 -3 3 -158
-83 -345 -191 -186 -107 -347 -199 -358 -202 -10 -4 -21 -11 -24 -15 -3 -4
-88 -55 -190 -114 -102 -58 -188 -112 -192 -118 -4 -6 -10 -30 -13 -52 -3 -22
-19 -94 -35 -160 -16 -66 -32 -136 -35 -157 -7 -47 -35 -60 -35 -17 0 32 1 32
-47 12 -8 -3 -13 4 -13 19 0 34 -10 40 -36 24 -25 -17 -34 -12 -34 22 0 15 -5
22 -12 19 -49 -20 -48 -20 -48 12 0 28 -2 31 -19 21 -28 -15 -31 -13 -31 20 0
17 -3 30 -7 30 -3 0 -235 -132 -514 -292 l-509 -293 0 -297 c0 -164 -3 -298
-7 -298 -6 0 -158 86 -329 187 -124 73 -180 75 -327 11 -69 -30 -1504 -853
-1577 -905 -19 -13 -46 -32 -60 -41 -48 -33 -186 -174 -215 -220 -16 -26 -32
-49 -35 -52 -18 -17 -83 -171 -107 -255 l-28 -100 0 -2010 0 -2010 31 -70 32
-70 333 -193 c184 -107 351 -200 371 -207 63 -23 181 1 299 60 85 43 1466 842
1540 891 193 127 339 321 395 523 20 72 54 104 54 50 0 -24 4 -30 15 -25 8 3
22 9 30 12 11 5 15 -1 15 -25 l0 -32 30 16 30 16 0 -32 c0 -24 4 -30 15 -25 8
3 22 9 30 12 11 5 15 -1 15 -25 0 -36 2 -37 35 -15 25 16 25 16 25 -15 0 -17
5 -31 10 -31 16 0 653 370 666 386 6 8 21 14 32 14 20 0 268 137 305 168 15
14 17 39 18 256 0 180 3 235 11 219 8 -17 17 -21 33 -17 18 4 24 0 29 -20 5
-22 9 -25 26 -16 26 14 27 13 34 -16 6 -21 11 -25 31 -20 18 5 25 1 30 -15 5
-16 13 -20 31 -16 19 3 26 -1 30 -20 5 -20 11 -23 31 -18 20 5 26 1 30 -15 4
-17 12 -21 30 -17 19 3 27 -1 33 -19 5 -13 14 -24 19 -24 14 0 1073 610 1095
631 19 17 18 21 -44 185 -61 159 -63 167 -45 180 27 20 35 17 35 -12 0 -27 6
-28 53 -9 14 6 17 2 17 -24 0 -30 13 -41 25 -21 11 17 23 11 27 -12 3 -23 17
-27 51 -13 14 6 17 2 17 -25 0 -25 4 -31 15 -26 8 3 22 9 30 12 11 5 15 -1 15
-20 0 -26 22 -36 35 -16 12 20 25 9 25 -20 0 -16 3 -30 6 -30 3 0 124 67 268
149 143 81 288 163 321 182 33 18 97 53 142 78 45 25 91 54 102 63 12 10 68
45 126 79 l105 61 0 172 c0 94 4 176 8 182 4 6 17 16 30 23 20 11 22 10 22
-19 0 -32 9 -36 41 -20 17 10 19 7 19 -20 0 -34 6 -37 38 -14 21 15 22 14 22
-15 0 -33 9 -37 41 -21 17 10 19 7 19 -21 0 -24 4 -30 15 -25 8 3 22 9 30 12
11 4 15 -1 15 -18 0 -14 3 -28 6 -31 7 -6 94 40 105 55 3 5 219 131 480 282
l474 273 3 1076 c1 737 5 1077 12 1077 12 0 238 -127 258 -145 11 -10 13 -121
12 -574 0 -308 3 -561 7 -561 5 0 19 7 31 16 21 15 22 14 22 -15 0 -31 21 -43
35 -21 11 18 25 10 25 -15 0 -26 14 -31 40 -15 12 7 16 4 20 -18 6 -27 18 -31
53 -17 14 6 17 2 17 -19 0 -26 22 -36 35 -16 12 20 25 9 25 -21 0 -24 4 -30
15 -25 8 3 22 9 30 12 11 5 15 -1 15 -20 0 -28 10 -32 41 -16 17 10 19 7 19
-21 0 -24 4 -30 15 -25 8 3 22 9 30 12 11 4 15 -1 15 -18 0 -34 9 -39 36 -21
23 15 24 14 24 -10 0 -30 17 -44 33 -28 18 18 27 13 27 -13 0 -14 4 -27 8 -30
5 -3 244 131 533 297 l524 302 5 874 5 874 215 123 c264 150 325 203 389 336
22 48 47 118 55 155 18 90 34 2873 16 2873 -6 0 -22 -7 -35 -16 l-25 -16 0 37
0 37 -25 -16 c-24 -16 -25 -16 -25 8 0 34 -14 40 -45 20 l-25 -16 0 37 c0 29
-3 36 -15 31 -8 -3 -22 -9 -30 -12 -11 -5 -15 1 -15 20 0 30 -7 32 -38 10 -22
-15 -22 -14 -22 22 0 28 -3 35 -15 30 -8 -3 -22 -9 -30 -12 -11 -5 -15 1 -15
20 0 30 -7 32 -38 10 -21 -15 -22 -14 -22 20 0 35 -20 50 -35 26 -12 -19 -25
-10 -25 16 0 17 -4 24 -12 21 -49 -20 -48 -20 -48 12 0 35 -14 39 -47 16 -21
-15 -22 -14 -25 15 l-3 29 -525 -303z m-4540 -5688 l-1 -1323 -83 220 c-46
121 -121 317 -166 435 -139 365 -170 449 -170 458 0 5 70 265 156 578 85 313
179 656 207 761 29 106 53 193 55 193 1 0 2 -595 2 -1322z"/>
<path d="M14783 12257 l-523 -302 -1 -220 c-1 -121 -4 -205 -6 -187 -4 31 -25
43 -38 22 -14 -22 -35 -10 -35 21 0 31 0 31 -25 15 -33 -22 -35 -21 -35 15 0
32 1 32 -47 12 -9 -3 -13 5 -13 26 l0 32 -30 -16 -30 -16 0 31 c0 30 -21 42
-35 20 -12 -20 -24 -9 -27 23 l-3 33 -527 -304 -528 -305 0 -158 c0 -99 -4
-159 -10 -159 -5 0 -10 11 -10 25 0 25 -23 35 -35 15 -12 -20 -25 -9 -25 20 0
29 -13 40 -25 20 -12 -20 -35 -10 -35 15 0 26 -14 31 -40 15 -12 -8 -16 -3
-20 25 l-5 34 -1270 -733 -1270 -734 -3 -131 c-1 -76 -7 -131 -12 -131 -6 0
-10 14 -10 30 l0 31 -30 -16 -30 -16 0 32 c0 21 -4 29 -12 26 -49 -20 -48 -20
-48 12 0 36 -2 37 -35 15 -25 -16 -25 -16 -25 20 0 20 -2 36 -3 36 -2 0 -240
-136 -528 -302 l-524 -303 -5 -215 c-3 -118 -7 -202 -8 -186 -1 21 -6 27 -17
22 -8 -3 -22 -9 -30 -12 -11 -5 -15 1 -15 25 0 30 -13 41 -25 21 -12 -20 -35
-10 -35 15 0 25 -23 35 -35 15 -12 -20 -25 -9 -25 21 0 21 -4 29 -12 26 -49
-20 -48 -20 -48 7 0 27 -14 33 -40 16 -12 -8 -16 -3 -20 25 l-5 35 -532 -307
-533 -308 0 -293 c0 -265 -2 -294 -16 -288 -9 3 -81 44 -161 91 -80 47 -148
85 -151 85 -3 0 -16 9 -28 21 -12 11 -28 22 -35 23 -8 2 -22 6 -32 11 -31 13
-168 -5 -193 -26 -8 -6 -14 -8 -14 -4 0 4 -16 -2 -36 -14 -19 -12 -39 -21 -44
-21 -6 0 -224 -124 -486 -275 -261 -151 -482 -275 -490 -275 -8 0 -14 -7 -14
-15 0 -8 -5 -15 -12 -15 -15 0 -434 -241 -515 -296 -88 -60 -87 -60 -183 -154
-93 -92 -157 -192 -210 -325 -62 -157 -60 -61 -60 -2446 l0 -2171 25 16 c24
16 25 16 25 -8 0 -33 16 -41 45 -22 25 16 25 16 25 -14 0 -31 17 -39 38 -18 9
9 12 8 12 -7 0 -11 4 -26 9 -34 8 -12 13 -12 35 3 l26 16 0 -35 0 -36 30 16
30 16 0 -32 c0 -24 4 -30 15 -25 8 3 22 9 30 12 11 5 15 -1 15 -25 0 -29 2
-30 26 -21 34 13 34 13 34 -15 0 -25 23 -35 35 -15 11 18 24 10 27 -17 3 -28
8 -30 41 -18 13 6 17 2 17 -19 0 -28 10 -32 41 -16 15 9 19 7 19 -7 1 -54 6
-51 541 257 288 165 527 306 531 313 4 7 8 89 8 183 l0 171 25 11 c24 11 25
10 25 -18 0 -30 21 -42 35 -20 11 18 25 10 25 -15 0 -27 10 -31 41 -15 17 10
19 7 19 -20 0 -32 9 -36 41 -20 16 9 19 7 19 -15 0 -27 26 -35 48 -13 9 9 12
5 12 -20 0 -18 5 -32 12 -32 6 0 87 43 180 96 93 53 170 95 172 93 2 -2 -5
-51 -15 -109 -28 -160 -41 -389 -30 -545 4 -58 25 -144 42 -173 10 -18 19 -39
19 -46 0 -13 41 -56 54 -56 4 0 21 -9 38 -21 40 -29 146 -37 191 -14 18 9 41
18 52 21 50 10 237 171 283 243 9 14 22 29 28 33 24 16 165 238 243 384 117
218 249 509 355 784 21 52 46 115 55 140 10 25 28 75 40 111 18 55 27 68 54
81 31 15 35 14 62 -4 l30 -20 -23 20 c-12 11 -22 22 -22 25 0 13 359 207 383
207 19 0 43 14 75 44 41 38 620 382 628 373 2 -2 -47 -111 -109 -243 -164
-348 -328 -649 -420 -771 -24 -31 -41 -43 -68 -47 -30 -5 -40 -13 -53 -41 -23
-47 -17 -77 15 -89 37 -13 69 -2 126 44 28 21 54 36 58 32 5 -4 5 -2 2 5 -4 6
16 43 45 82 122 161 314 522 489 914 l98 222 124 75 c241 146 366 268 455 445
69 138 90 247 102 526 l9 210 61 60 c34 33 64 58 67 56 2 -3 -10 -60 -27 -127
-18 -67 -30 -124 -27 -126 3 -3 0 -22 -5 -42 -36 -128 -176 -829 -239 -1197
-47 -267 -53 -316 -53 -450 -1 -148 -1 -151 31 -217 43 -92 79 -112 142 -78
25 13 26 25 4 81 -14 36 -17 80 -17 234 0 204 1 208 90 670 101 527 176 879
186 870 3 -4 6 4 5 17 -1 22 15 97 83 388 16 69 31 134 33 145 3 11 5 -44 6
-122 0 -79 3 -143 6 -143 3 0 17 7 30 16 25 16 25 16 25 -20 0 -41 1 -41 40
-21 l30 16 0 -41 c0 -22 -13 -86 -29 -143 -16 -57 -32 -131 -36 -163 -4 -32
-11 -67 -16 -76 -5 -9 -5 -19 0 -22 4 -3 6 -17 3 -31 -7 -40 18 -114 45 -132
73 -48 192 66 308 297 37 74 58 99 83 100 6 0 12 -12 12 -26 0 -23 3 -25 25
-20 20 5 26 2 31 -18 4 -16 15 -26 34 -29 16 -4 30 -13 32 -21 2 -12 29 -1
111 46 59 33 110 59 112 57 2 -2 -5 -45 -15 -95 -35 -171 -52 -328 -54 -489
-1 -143 2 -165 20 -205 28 -60 53 -81 106 -85 61 -5 93 12 93 50 0 27 -4 30
-33 33 -22 2 -38 12 -50 30 -39 60 -6 424 69 763 l21 96 102 58 c55 33 116 68
134 78 l32 19 -2 -100 c-2 -71 1 -104 11 -116 16 -19 64 -21 80 -3 11 14 69
168 103 276 18 56 26 66 66 90 74 43 72 39 72 181 0 126 1 130 44 251 93 262
202 523 284 684 l51 100 0 -80 c1 -69 -5 -97 -39 -195 -60 -171 -92 -310 -97
-430 -5 -97 -3 -107 17 -132 35 -45 72 -38 134 26 81 83 243 368 248 438 3 30
21 57 41 58 4 0 7 -14 7 -31 0 -32 -1 -32 48 -12 8 3 12 -5 12 -26 l0 -32 30
16 30 16 0 -31 c0 -30 21 -42 35 -20 12 20 25 9 25 -20 0 -34 6 -36 38 -14 21
15 22 14 22 -15 0 -33 9 -37 41 -21 17 10 19 7 19 -20 0 -16 3 -30 7 -30 3 0
73 39 155 86 82 48 151 84 154 81 10 -9 -287 -480 -538 -853 -70 -105 -128
-198 -128 -207 0 -22 36 -31 68 -17 15 6 63 55 107 107 85 102 373 397 490
503 183 165 472 376 669 489 100 57 209 111 336 166 82 36 90 42 90 71 0 36
-41 41 -109 14 -355 -145 -792 -439 -1146 -772 -33 -31 -61 -55 -63 -53 -2 2
54 95 125 207 71 111 162 258 202 325 40 67 81 128 90 136 9 7 129 78 266 157
138 79 258 150 268 158 15 13 17 38 18 221 1 113 4 193 6 178 3 -20 9 -27 19
-23 8 3 21 9 29 12 11 5 15 -1 15 -20 0 -27 14 -33 40 -16 12 7 16 3 21 -18 5
-27 10 -29 42 -17 14 6 17 2 17 -20 0 -28 6 -29 53 -10 14 6 17 2 17 -24 0
-36 2 -37 35 -15 25 16 25 16 25 -15 0 -17 4 -31 9 -31 14 0 1035 591 1043
604 4 6 7 1091 5 2411 -2 2128 -4 2400 -17 2396 -8 -2 -23 -6 -32 -8 -14 -4
-18 1 -18 22 0 20 -4 26 -15 21 -8 -3 -22 -9 -30 -12 -11 -5 -15 1 -15 25 0
28 -2 31 -19 21 -31 -16 -41 -12 -41 16 0 19 -4 25 -15 20 -8 -3 -22 -9 -30
-12 -11 -5 -15 1 -15 25 0 30 -13 41 -25 21 -12 -20 -35 -10 -35 15 0 27 -10
31 -41 15 -17 -10 -19 -7 -19 21 0 24 -4 30 -15 25 -8 -3 -22 -9 -30 -12 -11
-5 -15 1 -15 20 0 27 -14 33 -40 16 -12 -7 -16 -3 -21 18 -5 27 -10 29 -41 17
-14 -6 -18 -2 -18 17 0 34 -10 40 -37 23 -23 -15 -23 -15 -23 20 0 19 -3 35
-7 34 -5 0 -243 -136 -530 -302z m-1952 -4713 c-26 -71 -57 -153 -67 -182 -17
-48 -25 -57 -78 -88 -32 -19 -60 -33 -63 -31 -2 3 22 67 53 143 58 142 134
358 134 381 0 23 -46 38 -75 25 -27 -12 -95 -137 -172 -317 -24 -55 -48 -109
-53 -120 -6 -13 -8 60 -5 220 2 132 4 463 5 735 l0 495 183 105 182 105 3
-671 2 -672 -49 -128z m-2246 360 c29 22 35 20 35 -14 0 -30 21 -42 35 -20 11
18 25 10 25 -15 0 -27 10 -31 41 -15 17 10 19 7 19 -20 0 -17 5 -30 13 -30 6
0 41 18 77 39 l65 39 3 -582 2 -583 -89 -224 c-49 -123 -124 -312 -166 -419
-43 -107 -81 -202 -86 -210 -5 -8 -8 460 -7 1045 0 583 3 1045 7 1027 6 -31 7
-32 26 -18z m2215 -1360 c-77 -158 -178 -390 -251 -577 l-34 -88 -3 136 c-2
127 -1 142 28 238 17 56 47 156 66 222 37 125 54 179 124 405 78 249 112 345
128 358 16 12 17 -8 20 -258 l2 -272 -80 -164z m-172 436 c-28 -85 -65 -200
-84 -255 l-33 -100 0 171 c-1 158 1 176 22 224 20 44 32 57 82 86 33 18 60 32
61 31 2 -1 -20 -72 -48 -157z m-1773 -907 c-51 -51 -56 -69 -20 -85 14 -6 24
-17 22 -23 -3 -6 -10 -37 -16 -70 -7 -33 -25 -112 -41 -175 -16 -63 -31 -134
-35 -157 -6 -37 -20 -56 -108 -144 l-102 -101 -3 86 c-3 82 -1 91 43 201 25
63 45 116 45 119 0 3 13 33 28 68 16 35 73 176 128 314 l99 251 3 -120 3 -120
-46 -44z m2145 207 c0 -27 2 -30 19 -20 28 14 31 13 31 -15 0 -27 18 -32 51
-15 17 10 19 7 19 -21 0 -62 -167 -357 -230 -406 -64 -49 -21 206 85 495 9 23
25 12 25 -18z m-1787 -1310 c7 0 22 7 34 15 20 14 21 13 25 -27 3 -37 -3 -55
-50 -135 -49 -85 -99 -143 -123 -143 -17 0 -9 110 16 206 14 53 25 98 25 100
0 2 12 10 28 18 26 14 27 13 30 -10 2 -13 9 -24 15 -24z m-3114 -1817 c138
-80 175 -97 217 -101 l52 -4 -30 -82 c-146 -405 -415 -941 -614 -1225 -40 -55
-142 -179 -179 -216 -24 -24 -82 -63 -105 -70 -134 -45 -197 147 -171 519 10
145 54 424 69 437 4 3 120 70 257 149 138 79 253 148 257 154 4 6 8 121 8 254
0 240 0 244 23 263 12 10 28 18 36 19 8 0 89 -44 180 -97z"/>
<path d="M16975 1744 c-49 -19 -96 -37 -104 -39 -8 -3 -12 -7 -9 -10 5 -5 190
63 203 76 13 12 11 12 -90 -27z"/>
</g>
</svg>
